<?xml version="1.0" encoding="UTF-8"?>
<svg width="24px" height="24px" viewBox="0 0 24 24" version="1.1" xmlns="http://www.w3.org/2000/svg" xmlns:xlink="http://www.w3.org/1999/xlink" style="background: #0073B1;">
    <!-- Generator: Sketch 49.3 (51167) - http://www.bohemiancoding.com/sketch -->
    <title>Icon 24</title>
    <desc>Created with Sketch.</desc>
    <defs></defs>
    <g id="Icon-24" stroke="none" stroke-width="1" fill="none" fill-rule="evenodd">
        <path d="M8.34750023,17.5956888 L8.34750023,1.00069964 L9.99750023,1.00069964 L9.99750023,1.00796861 L10.0049257,1.00496852 L13.3588963,9.30633713 L16.7148744,1 L16.725,1.00409102 L16.725,1.00069964 L18,1.00069964 L24,1.00069964 L24,2.65064547 L18.375,2.65064547 L18.375,7.00050265 L24,7.00050265 L24,8.65044847 L18.375,8.65044847 L18.375,22.0000101 L16.725,22.0000101 L16.725,5.379559 L14.032252,12.0443441 L14.0247815,12.0674372 L12.694877,12.0674524 L9.99750023,5.39121065 L9.99750023,22.0000101 L8.34750023,22.0000101 L8.34725773,21.9997094 L1.65,5.42341485 L1.65,22.0000101 L0,22.0000101 L0,1.00069964 L1.65,1.00069964 L1.65,1.01879403 L8.34750023,17.5956888 Z" id="Combined-Shape" fill="#FFFFFF"></path>
    </g>
</svg>